<?xml version="1.0" encoding="utf-8"?>
<!-- Generator: Adobe Illustrator 17.1.0, SVG Export Plug-In . SVG Version: 6.00 Build 0)  -->
<!DOCTYPE svg PUBLIC "-//W3C//DTD SVG 1.1//EN" "http://www.w3.org/Graphics/SVG/1.1/DTD/svg11.dtd">
<svg version="1.1" id="Layer_1" xmlns="http://www.w3.org/2000/svg" xmlns:xlink="http://www.w3.org/1999/xlink" x="0px" y="0px"
	 viewBox="0 0 154.4 13.6" enable-background="new 0 0 154.4 13.6" xml:space="preserve">
<path fill="#1D1D1D" d="M2,2.1h0.9c2.3,0,2.6,1.3,2.6,2.1c0,1.2-0.8,2.1-2.6,2.1H2V2.1z M0,0.2v13.3h2V8.2H3c1,0,2.2-0.1,3.3-1
	C7.3,6.2,7.5,5,7.5,4.2C7.5,3,7,1.7,5.9,1c-1-0.6-2.1-0.7-2.9-0.7H0z"/>
<path fill="#1D1D1D" d="M15.6,2.1h0.7c1,0,2.8,0.2,2.8,2.1c0,2.1-2.3,2.2-2.8,2.2h-0.6V2.1z M13.6,0.2v13.3h2V8.1H16l3.8,5.5h2.5
	l-4.2-5.7c1.8-0.4,3-1.8,3-3.7C21.1,3.6,21,2,19.5,1c-0.9-0.6-1.9-0.8-3.5-0.8H13.6z"/>
<path fill="#1D1D1D" d="M34.6,12c-2.9,0-4.9-2.1-4.9-5c0-3,2-5,4.9-5s4.9,2.1,4.9,5C39.5,9.9,37.4,12,34.6,12z M34.6,0
	c-4,0-6.9,3-6.9,6.9c0,3.9,2.9,6.9,6.9,6.9s6.9-3,6.9-6.9C41.5,3,38.6,0,34.6,0z"/>
<path fill="#1D1D1D" d="M50.1,0.2v8.6c0,1.4-0.1,1.8-0.2,2.1c-0.3,0.8-1,0.9-1.3,0.9c-0.7,0-1.1-0.3-1.4-0.5l-1,1.7
	c0.4,0.3,1.2,0.7,2.4,0.7c1.8,0,2.7-1.1,3.1-1.9c0.5-0.9,0.5-2,0.5-3V0.2H50.1z"/>
<polygon fill="#1D1D1D" points="66.7,0.2 59.3,0.2 59.3,13.6 66.7,13.6 66.7,11.7 61.4,11.7 61.4,7.5 66.5,7.5 66.5,5.5 61.4,5.5 
	61.4,2.2 66.7,2.2 "/>
<path fill="#1D1D1D" d="M83.2,1c-1.2-0.7-2.3-1-3.6-1c-1.8,0-3.4,0.4-4.8,1.7c-1.1,1.1-2.1,2.8-2.1,5.2c0,1.9,0.6,3.6,2.1,5
	c0.8,0.7,2.3,1.8,4.7,1.8c0.9,0,2.3-0.2,3.7-1v-2.4c-0.8,0.7-2,1.5-3.6,1.5c-2.8,0-4.9-2.2-4.9-5c0-2.9,2-5.1,4.9-5.1
	c0.8,0,2.1,0.1,3.6,1.5V1z"/>
<polygon fill="#1D1D1D" points="96.5,2.2 96.5,0.2 88.3,0.2 88.3,2.2 91.4,2.2 91.4,13.6 93.4,13.6 93.4,2.2 "/>
<path fill="#1D1D1D" d="M118.3,2.2c-0.3-0.6-0.7-1-1-1.3c-0.4-0.4-1.2-0.9-2.7-0.9c-2.5,0-3.9,1.7-3.9,3.5c0,2,1.6,2.9,2.7,3.4
	l1.3,0.5c0.9,0.4,1.9,0.9,1.9,2.3c0,1.3-1,2.2-2.2,2.2c-0.8,0-1.4-0.3-1.7-0.8c-0.3-0.4-0.6-1-0.6-1.7l-2,0.4
	c0.1,0.9,0.4,1.8,1.1,2.6c0.7,0.8,1.6,1.3,3.1,1.3c2.5,0,4.3-1.7,4.3-4.3c0-1.5-0.7-2.9-3.1-3.9l-1.3-0.5c-1.3-0.5-1.4-1.2-1.4-1.6
	c0-0.9,0.6-1.6,1.9-1.6c0.6,0,1,0.1,1.4,0.5c0.3,0.3,0.5,0.5,0.6,0.8L118.3,2.2z"/>
<rect x="125.3" y="0.2" fill="#1D1D1D" width="2" height="13.3"/>
<polygon fill="#1D1D1D" points="141.3,2.2 141.3,0.2 133.1,0.2 133.1,2.2 136.2,2.2 136.2,13.6 138.2,13.6 138.2,2.2 "/>
<polygon fill="#1D1D1D" points="154.4,0.2 147.1,0.2 147.1,13.6 154.4,13.6 154.4,11.7 149.1,11.7 149.1,7.5 154.3,7.5 154.3,5.5 
	149.1,5.5 149.1,2.2 154.4,2.2 "/>
</svg>
